<svg width="42" height="42" viewBox="0 0 42 42" fill="none" xmlns="http://www.w3.org/2000/svg">
<g clip-path="url(#clip0_24_7)">
<circle cx="21" cy="21" r="20" stroke="#28C825" stroke-width="2"/>
<path d="M15.0222 19.6556L17.4667 17.2111C17.7778 16.9 17.8667 16.4667 17.7444 16.0778C17.3333 14.8333 17.1111 13.5 17.1111 12.1111C17.1111 11.5 16.6111 11 16 11H12.1111C11.5 11 11 11.5 11 12.1111C11 22.5444 19.4556 31 29.8889 31C30.5 31 31 30.5 31 29.8889V26.0111C31 25.4 30.5 24.9 29.8889 24.9C28.5111 24.9 27.1667 24.6778 25.9222 24.2667C25.5333 24.1333 25.0889 24.2333 24.7889 24.5333L22.3444 26.9778C19.2 25.3667 16.6222 22.8 15.0222 19.6556Z" fill="#28C825"/>
</g>
<defs>
<clipPath id="clip0_24_7">
<rect width="42" height="42" fill="white"/>
</clipPath>
</defs>
</svg>
