<svg width="69" height="69" viewBox="0 0 69 69" fill="none" xmlns="http://www.w3.org/2000/svg">
<circle cx="34.5" cy="34.5" r="34.5" fill="#28C825"/>
<g clip-path="url(#clip0_86_6)">
<path d="M42.633 43.8569C42.4396 43.8585 42.2482 43.8178 42.072 43.7379C41.7193 43.5893 41.4387 43.3086 41.29 42.9559L40.644 41.3919C40.6109 41.3102 40.6109 41.2187 40.644 41.1369C40.6611 41.0949 40.6865 41.0566 40.7186 41.0245C40.7507 40.9924 40.7889 40.967 40.831 40.9499C40.874 40.9307 40.92 40.9192 40.967 40.9159C41.0368 40.9162 41.1049 40.9374 41.1625 40.9768C41.22 41.0162 41.2645 41.072 41.29 41.1369L41.936 42.7009C42.0162 42.8832 42.1617 43.0288 42.344 43.1089C42.4371 43.1409 42.5346 43.1581 42.633 43.1599C42.7317 43.161 42.8297 43.1437 42.922 43.1089L44.622 42.4119C44.7139 42.3747 44.7974 42.3195 44.8674 42.2494C44.9375 42.1793 44.9928 42.0958 45.03 42.0039C45.0725 41.9135 45.0945 41.8148 45.0945 41.7149C45.0945 41.615 45.0725 41.5164 45.03 41.4259L44.384 39.8619C44.3547 39.7862 44.3522 39.7028 44.377 39.6254C44.4017 39.5481 44.4522 39.4816 44.52 39.4369C45.6021 38.7118 46.5319 37.7821 47.257 36.6999C47.2884 36.6522 47.3314 36.6132 47.3819 36.5864C47.4324 36.5597 47.4889 36.5461 47.546 36.5469C47.593 36.5502 47.639 36.5617 47.682 36.5809L49.246 37.2269C49.3383 37.2617 49.4363 37.279 49.535 37.2779C49.6832 37.2771 49.8279 37.2333 49.9516 37.1519C50.0753 37.0704 50.1728 36.9547 50.232 36.8189L50.946 35.1189C50.9834 35.0286 51.0025 34.9317 51.0022 34.8339C51.0019 34.7362 50.9822 34.6394 50.9442 34.5493C50.9063 34.4592 50.8508 34.3775 50.7811 34.3089C50.7114 34.2404 50.6288 34.1863 50.538 34.1499L48.974 33.5039C48.9009 33.4713 48.841 33.4149 48.804 33.3439C48.767 33.273 48.755 33.1916 48.77 33.1129C49.025 31.8392 49.025 30.5276 48.77 29.2539C48.752 29.1752 48.7626 29.0925 48.8 29.0209C48.8374 28.9492 48.8991 28.8932 48.974 28.8629L50.538 28.2169C50.6299 28.1797 50.7134 28.1245 50.7834 28.0544C50.8535 27.9843 50.9088 27.9008 50.946 27.8089C50.9885 27.7185 51.0105 27.6198 51.0105 27.5199C51.0105 27.42 50.9885 27.3214 50.946 27.2309L50.249 25.5309C50.2118 25.4391 50.1565 25.3556 50.0864 25.2855C50.0164 25.2154 49.9329 25.1601 49.841 25.1229C49.6543 25.0554 49.4498 25.0554 49.263 25.1229L47.699 25.7689C47.6568 25.7902 47.6103 25.8018 47.563 25.8029C47.5061 25.8027 47.45 25.7887 47.3997 25.762C47.3493 25.7354 47.3062 25.6969 47.274 25.6499C46.5489 24.5678 45.6191 23.638 44.537 22.9129C44.4699 22.8678 44.421 22.8003 44.3992 22.7224C44.3774 22.6445 44.384 22.5614 44.418 22.4879L45.064 20.9239C45.1405 20.7389 45.1405 20.531 45.064 20.3459C44.9896 20.1696 44.8493 20.0294 44.673 19.9549L42.973 19.2409C42.868 19.2099 42.7594 19.1928 42.65 19.1899C42.5019 19.1907 42.3571 19.2345 42.2334 19.316C42.1097 19.3975 42.0123 19.5132 41.953 19.6489L41.307 21.2129C41.2785 21.2758 41.2333 21.3296 41.1764 21.3686C41.1194 21.4075 41.0529 21.4301 40.984 21.4339H40.916C40.277 21.3128 39.6284 21.2502 38.978 21.2469C38.3333 21.2494 37.6901 21.312 37.057 21.4339C37.023 21.4339 37.006 21.4509 36.972 21.4509C36.9044 21.4503 36.8386 21.4287 36.7838 21.3892C36.729 21.3496 36.6878 21.2939 36.666 21.2299L36.02 19.6489C35.9828 19.5571 35.9275 19.4736 35.8574 19.4035C35.7874 19.3334 35.7039 19.2781 35.612 19.2409C35.5189 19.209 35.4214 19.1918 35.323 19.1899C35.2243 19.1888 35.1263 19.2061 35.034 19.2409L33.334 19.9379C33.2436 19.9747 33.1612 20.029 33.0918 20.0976C33.0223 20.1662 32.967 20.2479 32.9291 20.3378C32.8912 20.4278 32.8714 20.5244 32.8709 20.6221C32.8704 20.7197 32.8891 20.8165 32.926 20.9069L33.572 22.4709C33.6013 22.5467 33.6038 22.6301 33.5791 22.7075C33.5543 22.7848 33.5038 22.8513 33.436 22.8959C32.3539 23.621 31.4241 24.5508 30.699 25.6329C30.6676 25.6807 30.6246 25.7197 30.5741 25.7465C30.5236 25.7732 30.4672 25.7868 30.41 25.7859C30.363 25.7827 30.317 25.7712 30.274 25.7519L28.71 25.1059C28.6173 25.0726 28.5195 25.0553 28.421 25.0549C28.3223 25.0538 28.2243 25.0711 28.132 25.1059C27.9544 25.1844 27.8099 25.3228 27.724 25.4969L27.01 27.1969C26.9425 27.3837 26.9425 27.5882 27.01 27.7749C27.0902 27.9572 27.2357 28.1028 27.418 28.1829L28.982 28.8289C29.0254 28.8456 29.0648 28.871 29.098 28.9035C29.1311 28.936 29.1573 28.975 29.1748 29.018C29.1923 29.061 29.2009 29.1071 29.1999 29.1536C29.1989 29.2 29.1884 29.2457 29.169 29.2879C29.1435 29.3529 29.0991 29.4087 29.0415 29.4481C28.9839 29.4875 28.9158 29.5087 28.846 29.5089C28.799 29.5057 28.753 29.4942 28.71 29.4749L27.146 28.8289C26.7933 28.6803 26.5127 28.3996 26.364 28.0469C26.2883 27.8726 26.2492 27.6845 26.2492 27.4944C26.2492 27.3044 26.2883 27.1163 26.364 26.9419L27.078 25.2419C27.2258 24.8932 27.5042 24.6161 27.8537 24.47C28.2032 24.3238 28.5959 24.3202 28.948 24.4599L30.24 25.0039L30.393 24.7999C31.007 23.9819 31.7339 23.255 32.552 22.6409L32.756 22.4879L32.212 21.1959C32.1363 21.0216 32.0972 20.8335 32.0972 20.6434C32.0972 20.4534 32.1363 20.2653 32.212 20.0909C32.3607 19.7382 32.6413 19.4576 32.994 19.3089L34.694 18.6119C34.8681 18.5405 35.0546 18.504 35.2429 18.5046C35.4311 18.5053 35.6173 18.543 35.791 18.6156C35.9646 18.6882 36.1223 18.7943 36.2549 18.9279C36.3876 19.0614 36.4926 19.2198 36.564 19.3939L37.108 20.6859L37.363 20.6519C37.8698 20.5785 38.3809 20.5388 38.893 20.5329C39.4054 20.5303 39.9172 20.5701 40.423 20.6519L40.678 20.6859L41.222 19.3939C41.3296 19.1311 41.5133 18.9064 41.7496 18.7489C41.986 18.5913 42.264 18.5081 42.548 18.5099C42.7342 18.5092 42.9188 18.5438 43.092 18.6119L44.792 19.3259C45.1447 19.4746 45.4253 19.7552 45.574 20.1079C45.6497 20.2823 45.6888 20.4704 45.6888 20.6604C45.6888 20.8505 45.6497 21.0386 45.574 21.2129L45.03 22.5049L45.234 22.6579C46.0521 23.272 46.779 23.9989 47.393 24.8169L47.546 25.0209L48.838 24.4769C49.0121 24.4055 49.1986 24.369 49.3869 24.3696C49.5751 24.3703 49.7613 24.408 49.935 24.4806C50.1086 24.5532 50.2663 24.6593 50.3989 24.7929C50.5316 24.9264 50.6366 25.0848 50.708 25.2589L51.405 26.9589C51.4807 27.1333 51.5198 27.3214 51.5198 27.5114C51.5198 27.7015 51.4807 27.8896 51.405 28.0639C51.2563 28.4166 50.9757 28.6973 50.623 28.8459L49.331 29.3899L49.365 29.6449C49.518 30.6592 49.518 31.6907 49.365 32.7049L49.331 32.9599L50.623 33.5039C50.9757 33.6526 51.2563 33.9332 51.405 34.2859C51.4807 34.4603 51.5198 34.6484 51.5198 34.8384C51.5198 35.0285 51.4807 35.2166 51.405 35.3909L50.691 37.0909C50.5835 37.3538 50.3997 37.5784 50.1634 37.736C49.9271 37.8935 49.649 37.9768 49.365 37.9749C49.1789 37.9756 48.9943 37.941 48.821 37.8729L47.529 37.3289L47.376 37.5329C46.762 38.351 46.0351 39.0779 45.217 39.6919L45.013 39.8449L45.557 41.1369C45.6327 41.3113 45.6718 41.4994 45.6718 41.6894C45.6718 41.8795 45.6327 42.0676 45.557 42.2419C45.4083 42.5946 45.1277 42.8753 44.775 43.0239L43.075 43.7209C43.007 43.8229 42.82 43.8569 42.633 43.8569Z" fill="white" stroke="white"/>
<path d="M39.012 36.428C38.9201 36.4285 38.8315 36.3934 38.7649 36.33C38.6984 36.2666 38.659 36.1798 38.655 36.088C38.6533 36.0407 38.6615 35.9936 38.6791 35.9497C38.6967 35.9058 38.7232 35.866 38.757 35.833C38.8198 35.7689 38.9053 35.7322 38.995 35.731C40.2033 35.7265 41.3604 35.2421 42.2116 34.3845C43.0628 33.5269 43.5385 32.3663 43.534 31.158C43.5295 29.9496 43.0452 28.7926 42.1876 27.9414C41.33 27.0901 40.1693 26.6145 38.961 26.619H38.927C38.3277 26.6189 37.7344 26.7393 37.1825 26.9729C36.6305 27.2065 36.1312 27.5486 35.714 27.979C35.293 28.404 34.9605 28.9083 34.7358 29.4628C34.5111 30.0172 34.3987 30.6108 34.405 31.209C34.4067 31.2562 34.3985 31.3033 34.3809 31.3472C34.3633 31.3911 34.3368 31.4309 34.303 31.464C34.2402 31.528 34.1547 31.5647 34.065 31.566C34.0189 31.5683 33.9729 31.5612 33.9297 31.5451C33.8864 31.5291 33.8469 31.5044 33.8135 31.4726C33.7801 31.4408 33.7535 31.4025 33.7354 31.3601C33.7173 31.3177 33.7079 31.2721 33.708 31.226C33.7035 30.5361 33.835 29.8522 34.0948 29.2131C34.3547 28.5741 34.7379 27.9925 35.2225 27.5015C35.7071 27.0106 36.2837 26.6199 36.9193 26.3518C37.555 26.0837 38.2372 25.9434 38.927 25.939H38.961C40.3451 25.9398 41.6731 26.4865 42.6565 27.4604C43.64 28.4344 44.1997 29.7569 44.214 31.141C44.2231 32.5312 43.6806 33.8684 42.7055 34.8594C41.7304 35.8504 40.4022 36.4145 39.012 36.428Z" fill="white" stroke="white"/>
<path d="M27.384 51.5069C27.2331 51.5065 27.0838 51.4761 26.9447 51.4177C26.8056 51.3592 26.6795 51.2738 26.5736 51.1663C26.4677 51.0588 26.3841 50.9314 26.3277 50.7915C26.2713 50.6515 26.2432 50.5018 26.245 50.3509V49.4159L25.99 49.3479C25.3501 49.1816 24.7374 48.924 24.171 48.5829L23.95 48.4469L23.287 49.1099C23.1813 49.2191 23.0544 49.3056 22.9141 49.3641C22.7738 49.4225 22.623 49.4517 22.471 49.4499C22.3192 49.4502 22.1689 49.4203 22.0288 49.3619C21.8887 49.3035 21.7617 49.2179 21.655 49.1099L20.703 48.1579C20.4906 47.9428 20.3715 47.6527 20.3715 47.3504C20.3715 47.0481 20.4906 46.758 20.703 46.5429L21.366 45.8799L21.23 45.6589C20.9029 45.0855 20.6461 44.4747 20.465 43.8399L20.397 43.5849H19.479C19.1725 43.5845 18.8788 43.4625 18.6621 43.2458C18.4454 43.0291 18.3234 42.7354 18.323 42.4289V41.1199C18.3234 40.8134 18.4454 40.5197 18.6621 40.303C18.8788 40.0863 19.1725 39.9644 19.479 39.9639H20.431L20.499 39.7089C20.6653 39.069 20.9229 38.4563 21.264 37.8899L21.4 37.6689L20.737 37.0059C20.5246 36.7908 20.4055 36.5007 20.4055 36.1984C20.4055 35.8961 20.5246 35.606 20.737 35.3909L21.689 34.4389C21.7947 34.3297 21.9216 34.2432 22.0619 34.1847C22.2022 34.1263 22.353 34.0971 22.505 34.0989C22.6568 34.0986 22.8071 34.1285 22.9472 34.1869C23.0873 34.2453 23.2143 34.3309 23.321 34.4389L23.984 35.1019L24.205 34.9659C24.7784 34.6389 25.3892 34.382 26.024 34.2009L26.279 34.1329V33.1809C26.2785 32.8771 26.3978 32.5854 26.6111 32.369C26.8243 32.1526 27.1142 32.0289 27.418 32.0249H28.761C29.0674 32.0254 29.3612 32.1473 29.5779 32.364C29.7946 32.5807 29.9165 32.8745 29.917 33.1809V34.1329L30.172 34.2009C30.8119 34.3672 31.4246 34.6248 31.991 34.9659L32.212 35.1019L32.875 34.4389C32.9807 34.3297 33.1076 34.2432 33.2479 34.1847C33.3882 34.1263 33.539 34.0971 33.691 34.0989C33.8428 34.0986 33.9931 34.1285 34.1332 34.1869C34.2733 34.2453 34.4003 34.3309 34.507 34.4389L35.459 35.3909C35.5682 35.4966 35.6547 35.6235 35.7132 35.7638C35.7716 35.9041 35.8008 36.0549 35.799 36.2069C35.7993 36.3587 35.7694 36.509 35.711 36.6491C35.6526 36.7892 35.567 36.9162 35.459 37.0229L34.796 37.6859L34.932 37.9069C35.259 38.4804 35.5159 39.0911 35.697 39.7259L35.765 39.9809H36.717C37.0234 39.9814 37.3172 40.1033 37.5339 40.32C37.7506 40.5367 37.8725 40.8305 37.873 41.1369V42.4799C37.8725 42.7864 37.7506 43.0801 37.5339 43.2968C37.3172 43.5135 37.0234 43.6355 36.717 43.6359H35.68L35.612 43.8909C35.4457 44.5308 35.1881 45.1435 34.847 45.7099L34.711 45.9309L35.374 46.5939C35.4832 46.6996 35.5697 46.8265 35.6282 46.9668C35.6866 47.1071 35.7158 47.2579 35.714 47.4099C35.7143 47.5617 35.6844 47.712 35.626 47.8521C35.5676 47.9922 35.482 48.1192 35.374 48.2259L34.422 49.1779C34.3163 49.2871 34.1894 49.3736 34.0491 49.4321C33.9088 49.4905 33.758 49.5197 33.606 49.5179C33.4542 49.5182 33.3039 49.4883 33.1638 49.4299C33.0237 49.3715 32.8967 49.2859 32.79 49.1779L32.127 48.5149L31.94 48.5999C31.3665 48.927 30.7558 49.1838 30.121 49.3649L29.866 49.4329V50.3849C29.8655 50.6914 29.7436 50.9851 29.5269 51.2018C29.3102 51.4185 29.0164 51.5405 28.71 51.5409H27.384V51.5069ZM23.899 47.6649C23.9727 47.6639 24.0446 47.6878 24.103 47.7329C24.8781 48.2471 25.7432 48.6105 26.653 48.8039C26.7341 48.8162 26.808 48.8574 26.8611 48.9199C26.9142 48.9823 26.9429 49.0619 26.942 49.1439V50.3679C26.9415 50.4261 26.9527 50.4838 26.9747 50.5376C26.9968 50.5914 27.0293 50.6403 27.0704 50.6815C27.1116 50.7226 27.1605 50.7551 27.2143 50.7772C27.2681 50.7992 27.3258 50.8104 27.384 50.8099H28.727C28.7852 50.8104 28.8428 50.7992 28.8967 50.7772C28.9505 50.7551 28.9994 50.7226 29.0405 50.6815C29.0817 50.6403 29.1142 50.5914 29.1363 50.5376C29.1583 50.4838 29.1694 50.4261 29.169 50.3679V49.1439C29.1681 49.0619 29.1968 48.9823 29.2499 48.9199C29.303 48.8574 29.3769 48.8162 29.458 48.8039C30.3768 48.6225 31.2497 48.2583 32.025 47.7329C32.0796 47.693 32.1445 47.6694 32.212 47.6649C32.3069 47.6653 32.398 47.7018 32.467 47.7669L33.334 48.6339C33.4198 48.7197 33.5357 48.7685 33.657 48.7699C33.7146 48.7691 33.7714 48.7567 33.824 48.7333C33.8766 48.7099 33.9239 48.6761 33.963 48.6339L34.915 47.6819C35.0008 47.5961 35.0496 47.4802 35.051 47.3589C35.0463 47.2383 34.998 47.1235 34.915 47.0359L34.048 46.1689C33.9904 46.1115 33.9553 46.0353 33.9491 45.9542C33.9428 45.8731 33.9659 45.7925 34.014 45.7269C34.5394 44.9516 34.9036 44.0787 35.085 43.1599C35.0973 43.0788 35.1385 43.0049 35.201 42.9518C35.2634 42.8987 35.343 42.87 35.425 42.8709H36.649C36.7072 42.8714 36.7648 42.8602 36.8187 42.8382C36.8725 42.8161 36.9214 42.7836 36.9625 42.7425C37.0037 42.7013 37.0362 42.6524 37.0583 42.5986C37.0803 42.5448 37.0914 42.4871 37.091 42.4289V41.0859C37.0914 41.0277 37.0803 40.9701 37.0583 40.9162C37.0362 40.8624 37.0037 40.8135 36.9625 40.7724C36.9214 40.7312 36.8725 40.6987 36.8187 40.6766C36.7648 40.6546 36.7072 40.6434 36.649 40.6439H35.425C35.343 40.6448 35.2634 40.6161 35.201 40.563C35.1385 40.5099 35.0973 40.436 35.085 40.3549C34.9005 39.4371 34.5365 38.5647 34.014 37.7879C33.9693 37.7211 33.9484 37.6412 33.9545 37.561C33.9607 37.4809 33.9936 37.4051 34.048 37.3459L34.915 36.4789C35.0008 36.3931 35.0496 36.2772 35.051 36.1559C35.0463 36.0353 34.998 35.9205 34.915 35.8329L33.963 34.8809C33.8772 34.7951 33.7613 34.7463 33.64 34.7449C33.5194 34.7496 33.4046 34.7979 33.317 34.8809L32.45 35.7479C32.3872 35.812 32.3017 35.8486 32.212 35.8499C32.146 35.8514 32.0811 35.8337 32.025 35.7989C31.2497 35.2735 30.3768 34.9093 29.458 34.7279C29.3769 34.7156 29.303 34.6744 29.2499 34.6119C29.1968 34.5495 29.1681 34.4699 29.169 34.3879V33.1639C29.1694 33.1057 29.1583 33.0481 29.1363 32.9942C29.1142 32.9404 29.0817 32.8915 29.0405 32.8504C28.9994 32.8092 28.9505 32.7767 28.8967 32.7546C28.8428 32.7326 28.7852 32.7214 28.727 32.7219H27.384C27.3258 32.7214 27.2681 32.7326 27.2143 32.7546C27.1605 32.7767 27.1116 32.8092 27.0704 32.8504C27.0293 32.8915 26.9968 32.9404 26.9747 32.9942C26.9527 33.0481 26.9415 33.1057 26.942 33.1639V34.3879C26.9429 34.4699 26.9142 34.5495 26.8611 34.6119C26.808 34.6744 26.7341 34.7156 26.653 34.7279C25.7352 34.9124 24.8628 35.2764 24.086 35.7989C24.0314 35.8388 23.9665 35.8624 23.899 35.8669C23.8041 35.8665 23.713 35.83 23.644 35.7649L22.777 34.8809C22.6912 34.7951 22.5753 34.7463 22.454 34.7449C22.3334 34.7496 22.2186 34.7979 22.131 34.8809L21.179 35.8329C21.136 35.875 21.1019 35.9253 21.0786 35.9807C21.0553 36.0362 21.0433 36.0957 21.0433 36.1559C21.0433 36.2161 21.0553 36.2756 21.0786 36.3311C21.1019 36.3865 21.136 36.4368 21.179 36.4789L22.08 37.3799C22.1376 37.4373 22.1727 37.5135 22.1789 37.5946C22.1852 37.6757 22.1621 37.7563 22.114 37.8219C21.5886 38.5972 21.2244 39.4701 21.043 40.3889C21.0307 40.47 20.9895 40.5439 20.927 40.597C20.8646 40.6501 20.785 40.6788 20.703 40.6779H19.496C19.4378 40.6774 19.3801 40.6886 19.3263 40.7106C19.2725 40.7327 19.2236 40.7652 19.1824 40.8064C19.1413 40.8475 19.1088 40.8964 19.0867 40.9502C19.0647 41.0041 19.0535 41.0617 19.054 41.1199V42.4629C19.0535 42.5211 19.0647 42.5788 19.0867 42.6326C19.1088 42.6864 19.1413 42.7353 19.1824 42.7765C19.2236 42.8176 19.2725 42.8501 19.3263 42.8722C19.3801 42.8942 19.4378 42.9054 19.496 42.9049H20.72C20.802 42.904 20.8816 42.9327 20.944 42.9858C21.0065 43.0389 21.0477 43.1128 21.06 43.1939C21.2414 44.1127 21.6056 44.9856 22.131 45.7609C22.1757 45.8277 22.1966 45.9076 22.1905 45.9878C22.1843 46.0679 22.1514 46.1437 22.097 46.2029L21.23 47.0699C21.1484 47.1542 21.1027 47.267 21.1027 47.3844C21.1027 47.5018 21.1484 47.6146 21.23 47.6989L22.182 48.6509C22.2678 48.7367 22.3837 48.7855 22.505 48.7869C22.5626 48.7861 22.6194 48.7737 22.672 48.7503C22.7246 48.7269 22.7719 48.6931 22.811 48.6509L23.678 47.7839C23.7009 47.7462 23.7335 47.7153 23.7723 47.6944C23.8112 47.6735 23.8549 47.6633 23.899 47.6649Z" fill="white" stroke="white"/>
<path d="M28.064 45.5401C27.3243 45.5401 26.6012 45.3207 25.9862 44.9098C25.3711 44.4988 24.8918 43.9147 24.6087 43.2313C24.3256 42.5479 24.2516 41.7959 24.3959 41.0704C24.5402 40.3449 24.8964 39.6785 25.4194 39.1555C25.9425 38.6324 26.6089 38.2762 27.3344 38.1319C28.0599 37.9876 28.8118 38.0617 29.4952 38.3448C30.1786 38.6278 30.7627 39.1072 31.1737 39.7222C31.5847 40.3373 31.804 41.0604 31.804 41.8001C31.8013 42.7911 31.4064 43.7409 30.7056 44.4417C30.0048 45.1425 29.0551 45.5374 28.064 45.5401ZM28.064 38.7571C27.4622 38.7571 26.8738 38.9355 26.3734 39.2699C25.873 39.6043 25.483 40.0795 25.2526 40.6356C25.0223 41.1916 24.9621 41.8034 25.0795 42.3937C25.1969 42.984 25.4867 43.5262 25.9123 43.9518C26.3379 44.3774 26.8801 44.6672 27.4703 44.7846C28.0606 44.902 28.6725 44.8417 29.2285 44.6114C29.7845 44.3811 30.2598 43.9911 30.5942 43.4907C30.9285 42.9902 31.107 42.4019 31.107 41.8001C31.1075 41.4003 31.0291 41.0044 30.8763 40.635C30.7235 40.2656 30.4994 39.93 30.2167 39.6473C29.9341 39.3647 29.5984 39.1406 29.229 38.9878C28.8596 38.835 28.4637 38.7566 28.064 38.7571Z" fill="white" stroke="white"/>
</g>
<defs>
<clipPath id="clip0_86_6">
<rect width="34" height="34" fill="white" transform="translate(18 18)"/>
</clipPath>
</defs>
</svg>
