<svg width="150" height="41" viewBox="0 0 150 41" fill="none" xmlns="http://www.w3.org/2000/svg">
<path d="M0.484375 40V1.45454H10.9489V31.5682H26.5327V40H0.484375ZM66.6026 20.7273C66.6026 25.0185 65.7682 28.6384 64.0994 31.587C62.4306 34.5231 60.1784 36.7502 57.3427 38.2685C54.507 39.7741 51.3451 40.527 47.8569 40.527C44.3436 40.527 41.1692 39.7679 38.3335 38.2496C35.5103 36.7189 33.2643 34.4854 31.5955 31.5494C29.9393 28.6007 29.1112 24.9934 29.1112 20.7273C29.1112 16.4361 29.9393 12.8224 31.5955 9.88636C33.2643 6.93774 35.5103 4.71058 38.3335 3.2049C41.1692 1.68667 44.3436 0.927555 47.8569 0.927555C51.3451 0.927555 54.507 1.68667 57.3427 3.2049C60.1784 4.71058 62.4306 6.93774 64.0994 9.88636C65.7682 12.8224 66.6026 16.4361 66.6026 20.7273ZM55.837 20.7273C55.837 18.4186 55.5296 16.4737 54.9148 14.8928C54.3125 13.2992 53.4154 12.0947 52.2234 11.2791C51.0439 10.451 49.5884 10.0369 47.8569 10.0369C46.1254 10.0369 44.6636 10.451 43.4716 11.2791C42.2921 12.0947 41.395 13.2992 40.7802 14.8928C40.1779 16.4737 39.8768 18.4186 39.8768 20.7273C39.8768 23.036 40.1779 24.9871 40.7802 26.5806C41.395 28.1616 42.2921 29.3661 43.4716 30.1942C44.6636 31.0098 46.1254 31.4176 47.8569 31.4176C49.5884 31.4176 51.0439 31.0098 52.2234 30.1942C53.4154 29.3661 54.3125 28.1616 54.9148 26.5806C55.5296 24.9871 55.837 23.036 55.837 20.7273ZM96.4763 14.1776C96.3132 13.5125 96.056 12.9291 95.7046 12.4272C95.3533 11.9128 94.9142 11.4799 94.3872 11.1286C93.8727 10.7647 93.2704 10.4949 92.5803 10.3192C91.9028 10.131 91.1562 10.0369 90.3406 10.0369C88.584 10.0369 87.0846 10.4573 85.8424 11.2979C84.6128 12.1386 83.6717 13.3494 83.0193 14.9304C82.3794 16.5114 82.0594 18.4186 82.0594 20.652C82.0594 22.9105 82.3668 24.8428 82.9816 26.4489C83.5964 28.0549 84.5124 29.2846 85.7295 30.1378C86.9466 30.991 88.4585 31.4176 90.2654 31.4176C91.8589 31.4176 93.1826 31.1855 94.2366 30.7212C95.3031 30.257 96.0999 29.5982 96.6269 28.745C97.1539 27.8918 97.4173 26.888 97.4173 25.7337L99.2242 25.9219H90.4159V18.4688H107.505V23.8139C107.505 27.3272 106.759 30.3323 105.266 32.8292C103.785 35.3136 101.74 37.2208 99.1301 38.5508C96.5328 39.8683 93.5528 40.527 90.1901 40.527C86.4384 40.527 83.1447 39.7302 80.309 38.1367C77.4733 36.5432 75.2587 34.2721 73.6652 31.3235C72.0843 28.3749 71.2938 24.8679 71.2938 20.8026C71.2938 17.6155 71.7768 14.7924 72.743 12.3331C73.7217 9.87382 75.0768 7.79723 76.8083 6.10334C78.5399 4.3969 80.5412 3.11079 82.8122 2.24503C85.0833 1.36671 87.5175 0.927555 90.1148 0.927555C92.3984 0.927555 94.5189 1.25379 96.4763 1.90625C98.4462 2.54616 100.184 3.46212 101.69 4.65412C103.208 5.83357 104.431 7.2326 105.36 8.85121C106.288 10.4698 106.853 12.2453 107.054 14.1776H96.4763ZM149.726 20.7273C149.726 25.0185 148.891 28.6384 147.222 31.587C145.554 34.5231 143.301 36.7502 140.466 38.2685C137.63 39.7741 134.468 40.527 130.98 40.527C127.467 40.527 124.292 39.7679 121.456 38.2496C118.633 36.7189 116.387 34.4854 114.719 31.5494C113.062 28.6007 112.234 24.9934 112.234 20.7273C112.234 16.4361 113.062 12.8224 114.719 9.88636C116.387 6.93774 118.633 4.71058 121.456 3.2049C124.292 1.68667 127.467 0.927555 130.98 0.927555C134.468 0.927555 137.63 1.68667 140.466 3.2049C143.301 4.71058 145.554 6.93774 147.222 9.88636C148.891 12.8224 149.726 16.4361 149.726 20.7273ZM138.96 20.7273C138.96 18.4186 138.653 16.4737 138.038 14.8928C137.436 13.2992 136.538 12.0947 135.346 11.2791C134.167 10.451 132.711 10.0369 130.98 10.0369C129.248 10.0369 127.787 10.451 126.595 11.2791C125.415 12.0947 124.518 13.2992 123.903 14.8928C123.301 16.4737 123 18.4186 123 20.7273C123 23.036 123.301 24.9871 123.903 26.5806C124.518 28.1616 125.415 29.3661 126.595 30.1942C127.787 31.0098 129.248 31.4176 130.98 31.4176C132.711 31.4176 134.167 31.0098 135.346 30.1942C136.538 29.3661 137.436 28.1616 138.038 26.5806C138.653 24.9871 138.96 23.036 138.96 20.7273Z" fill="#333333"/>
</svg>
